<?xml version="1.0" encoding="UTF-8"?>
<svg id="Capa_1" data-name="Capa 1" xmlns="http://www.w3.org/2000/svg" viewBox="0 0 511.98 493.7">
  <defs>
    <style>
      .cls-1 {
        fill: #ba1e1e;
        stroke-width: 0px;
      }
    </style>
  </defs>
  <g id="Layer_2" data-name="Layer 2">
    <g id="Surfaces">
      <g id="Video_Audio_Surface" data-name="Video Audio Surface">
        <g id="Outline_no_shadow" data-name="Outline no shadow">
          <polygon class="cls-1" points="164.33 164.76 192.58 256.36 136.06 256.36 164.33 164.76"/>
          <path class="cls-1" d="m421.38,0H90.62C40.58,0,0,40.58,0,90.62v312.43c0,50.07,40.58,90.65,90.62,90.65h330.73c50.05,0,90.62-40.58,90.62-90.65V90.62c.02-50.05-40.55-90.62-90.6-90.62Zm-154.73,347.24h-43.97c-1.56.17-3.01-.83-3.37-2.37l-17.26-52.48h-78.17l-15.89,51.8c-.45,1.86-2.15,3.14-4.05,3.05h-39.57c-2.26,0-3.05-1.24-2.37-3.71l67.67-192.32c.66-2.03,1.34-4.33,2.03-6.93.87-4.52,1.32-9.11,1.34-13.7-.17-1.15.64-2.22,1.77-2.37.19-.02.38-.02.6,0h53.78c1.58,0,2.47.58,2.71,1.69l76.8,213.97c.66,2.24-.02,3.37-2.05,3.37Zm161.37-.26l-34.84.45c-1.73.17-3.37-.79-4.05-2.37-.49-1.73-.87-3.48-1.17-5.25-.32-1.73-.49-3.5-.51-5.25-6.29,6.36-13.95,11.2-22.36,14.19-7.62,2.09-15.45,3.16-23.34,3.22-8.15,0-16.26-1.28-24-3.82-6.78-1.88-12.99-5.42-18.09-10.28-5.4-6.61-9.43-14.23-11.84-22.42-3.03-9.69-4.46-19.8-4.22-29.93v-99.8c-.17-1.3.73-2.52,2.03-2.71.23-.02.47-.02.68,0h39.79c1.3-.17,2.5.75,2.69,2.05.02.21.02.45,0,.66v94.38c-.45,7.74,1.71,15.42,6.1,21.82,5.53,6.34,13.59,9.92,21.99,9.77,5.44-.53,10.75-2.01,15.7-4.35,4.29-1.69,8.28-4.03,11.84-6.93v-115.01c0-1.58,1.02-2.37,3.05-2.37l39.72.11c1.15-.17,2.22.64,2.37,1.77.02.19.02.38,0,.58l-.83,123.95c0,5.63.06,10.65.17,15.06.13,4.39.34,8.23.68,11.5.34,3.26.62,6.04.85,8.28.19,1.81-.6,2.71-2.41,2.71Z"/>
        </g>
      </g>
    </g>
  </g>
</svg>