<?xml version="1.0" encoding="UTF-8"?>
<svg id="Capa_3" data-name="Capa 3" xmlns="http://www.w3.org/2000/svg" viewBox="0 0 383.36 374.19">
  <defs>
    <style>
      .cls-1 {
        fill: #ba1e1e;
        stroke-width: 0px;
      }
    </style>
  </defs>
  <path class="cls-1" d="m0,314.29V59.79c.64-2.75,1.24-5.51,2-8.25C10,20.68,36.7.05,69,.03,149.95-.01,230.9-.01,311.84.03c3.61,0,7.23.22,10.82.57,34.06,3.33,60.64,32.39,60.66,66.5.05,79.94.05,159.89,0,239.84.1,9.12-1.85,18.15-5.72,26.42-12.56,26.37-33.7,40.16-62.78,40.57-36,.51-72.09.12-108.13.12H68.62c-31-.06-57.31-19.71-65.92-49-1.11-3.53-1.83-7.17-2.7-10.76Zm156.11-89.84c8.86,0,17.72.1,26.57-.06,2.42,0,3.49.74,4.25,3,3.69,11.06,7.63,22.06,11.29,33.17.9,2.71,2.27,3.69,5.11,3.65,9.48-.15,19-.05,28.45-.06,5.24,0,5.3-.08,3.57-5-8.09-22.82-16.17-45.66-24.25-68.51-10.75-30.35-21.49-60.7-32.23-91.05-.75-2.1-1.43-3.78-4.25-3.75-12.73.12-25.45.08-38.18,0-2.2,0-3.14.87-3.18,3.1,0,2.48.07,5.1-.66,7.41-3.78,12-7.68,23.89-11.78,35.75-13.45,38.9-26.95,77.78-40.51,116.65-1.76,5.08-1.52,5.4,4,5.4,8.1,0,16.22-.13,24.32.06,3.39.09,5.13-.91,6.17-4.35,3.25-10.83,6.94-21.53,10.3-32.33.76-2.42,1.86-3.23,4.44-3.18,8.86.19,17.68.1,26.57.1Zm132.84-23.9c0-19.83-.06-39.66.07-59.49,0-3.21-.82-4.4-4.19-4.32-9.1.2-18.22.22-27.31,0-3.45-.09-4.21,1.21-4.17,4.32.14,10.35.05,20.71.05,31.06v86.44q0,5.67,5.48,5.68c8.48,0,17-.16,25.44.07,3.58.1,4.73-1,4.7-4.62-.15-19.75-.07-39.46-.07-59.17v.03Zm-17.84-77.48c11.27.26,19.82-7.9,20.08-19.12.28-12.38-7.46-20.68-19.41-20.81-11.17-.12-20,8.2-20.27,19.17-.29,12.06,7.61,20.46,19.6,20.73v.03Z"/>
  <path class="cls-1" d="m155.93,125.89c6.72,21.9,13.45,43.8,20.28,66.05h-40.72l19.64-66,.8-.05Z"/>
</svg>