<?xml version="1.0" encoding="UTF-8"?>
<svg id="Capa_1" data-name="Capa 1" xmlns="http://www.w3.org/2000/svg" viewBox="0 0 512.01 499.21">
  <defs>
    <style>
      .cls-1 {
        fill: #ba1e1e;
        stroke-width: 0px;
      }
    </style>
  </defs>
  <g id="Surfaces">
    <g id="Publishing_Surface" data-name="Publishing Surface">
      <g id="Outline_no_shadow" data-name="Outline no shadow">
        <path class="cls-1" d="m421.33,0H90.67C40.53,0,0,40.53,0,90.67v317.87c0,50.13,40.53,90.67,90.67,90.67h330.67c50.13,0,90.67-40.53,90.67-90.67V90.67c0-50.13-40.53-90.67-90.67-90.67h-.01Zm-235.31,349.44c0,2.35-1.07,3.41-2.99,3.41h-41.81c-1.92,0-2.77-1.07-2.77-3.41v-218.88c0-1.92,1.07-2.77,2.99-2.77h41.6c1.28-.21,2.56.64,2.77,2.13.21.21.21.43.21.64v218.88Zm190.51-6.4c-11.09,4.69-22.83,8.11-34.77,10.24-10.67,1.92-21.76,2.99-32.85,2.99-15.79.21-31.57-2.99-45.87-9.6-13.44-6.19-24.53-16.43-32.21-29.01-7.89-13.01-11.73-29.23-11.73-48.64-.21-15.79,3.84-31.36,11.73-45.01,8.11-13.87,19.84-25.39,33.92-33.07,14.93-8.32,32.85-12.37,53.97-12.37,1.07,0,2.56,0,4.48.21s4.05.21,6.61.43v-67.41c0-1.49.64-2.35,2.13-2.35h43.31c1.07-.21,1.92.64,2.13,1.49v203.52c0,3.84.21,8.11.43,12.8.43,4.48.64,8.75.85,12.37,0,1.49-.64,2.77-2.13,3.41h0Zm-59.52-124.8c-8.32,0-16.64,1.71-24.11,5.55-7.25,3.63-13.44,8.96-18.13,15.79s-7.04,16-7.04,27.09c-.21,7.47,1.07,14.93,3.63,21.97,2.13,5.76,5.33,10.88,9.6,15.15,4.05,3.84,8.96,6.83,14.51,8.53,5.76,1.92,11.73,2.77,17.71,2.77,3.2,0,6.19-.21,8.96-.43,2.77.21,5.33-.21,7.68-1.07v-93.87c-1.92-.43-3.84-.85-5.76-1.07-2.35-.21-4.69-.43-7.04-.43v.02Z"/>
      </g>
    </g>
  </g>
</svg>