<svg id="Capa_6" data-name="Capa 6" xmlns="http://www.w3.org/2000/svg" viewBox="0 0 461.06 364.05"><defs><style>.cls-1{fill:#e52421;stroke:#535353;stroke-miterlimit:10;}</style></defs><path class="cls-1" d="M283.06,191s52.13,35.5,55.46,45.48,14.42,214.07,14.42,229.6-113.14,47.7-113.14,47.7S177.69,485,177.69,465s-24.4-210.74-24.4-222.95,62.11-51,62.11-51Z" transform="translate(-75.08 -169.6)"/><path d="M98.06,533.65A103.32,103.32,0,0,1,106,498c5-11.69,13.86-18.49,23.94-24.88,6.3-4,12.18-8.63,18.82-12.13,2.57-1.35,3.94-2.59,1.68-6.43-2.69-4.57-5.16-7.88-10.71-8a2.85,2.85,0,0,1-1.7-.95c-2.95-3.24-5.69-3.83-8.86-.06-3.58,4.26-8.61-.49-12.63,1.63-1.14-5.17-6.26-5.06-9.61-7.3a3.86,3.86,0,0,1-1.55-4.46c1.44-3.53.19-6.06-1.6-9.12s0-6.82.54-10.23c.34-2.37.5-4.55-.6-6.78s-4-3.94-.85-7.54c1.81-2-2.32-4.58-3.82-6.85-.38-.56-1.93-.63-2-1.07-1-6.22-6.71-9.21-9.43-14.16-1.45-2.63-.55-5.83,1-8.36a19.84,19.84,0,0,0,2-17.3c-1.79-4.76-2.95-11.07-9.42-13.14-2.38-.76-3.88-3.16-5.14-5.28-1.72-2.87-1.24-5.24,2.35-6.41s7.15-2.71,10.82-3.69c2.59-.7,3.41-2.21,3.49-4.62.21-5.81.07-11.56-3.22-16.65-1.15-1.78-1-3.06.66-4.24a6.73,6.73,0,0,0,2.2-3.25c.43-1.14.66-2.43-.18-3.32-1.07-1.11-2.14.12-3.12.54-4.22,1.82-7.88,4.89-13.09,6,.74-2.38,2.55-2.46,3.88-3a81.05,81.05,0,0,0,13.71-8.11c.82-.56,5.76-1.19,1-3.9-1.12-.64.68-1.69,1.38-1.84,5.42-1.13,6.3-6.7,10.13-9.45-1.44-1.51-4.19,1.49-4.41-1.95-.21-3.18,2.39-1.69,3.56-2,6.39-1.66,9-6.16,6-10.88,5.18-1,10.82-6.78,11.6-12.19.41-2.89,1.79-7.55,3-7.36,3.8.56,4-3.11,6-3.75,6.21-1.94,8.46-7.59,11.21-12.21,1.85-3.09,3-6.68,5.19-9.84a28,28,0,0,1,10.12-8.93c4.37-2.14,7.31-5.42,10.86-8.24.82-.64,1.58-2.52,2.59-1.7a3.19,3.19,0,0,1,1.08,4c-.72,1.3-1,2.7.37,3.5,1.75,1,1.31-1.48,2.33-1.83,5.23-1.79,4.61-8,8.67-10.63-1.54-2.08-3,.24-4.54-.76,1.7-3.48,5.55-3.63,8.23-4.41,6-1.72,11.61-5.07,17.48-5.91,4-.57,8.53-1.79,13-.68,2.3.57,5.26,3.19,7.77-1.63.94-1.8,5-4,7.54-6.14.31-.27,1.07-.51,1.27-.34,6.22,5.07,13.56.37,20.12,2.35.59.18,1.51.22,1.71.61,2.86,5.66,8.73,4.42,13.36,5.45,3.06.68,5.77-.34,7.16,4.1.4,1.27,5.08,4.1,7.95,4.6,3.44.6,4,1.77,3.75,4.67-.09,1,1.48,1.81.84,3.22-3,.57-3.47-6.17-7.5-2.69.87,2,3.29,3,3.14,5.45-1.81,1.34-1.87-1.59-3.09-1.27-1.5,3.2-2.07,6.29,1.88,9.14-3.61.63-4.81-1.74-6.84-2.42-1.65,2,1.4,3.52.49,5.62-2.67-.64-3.8-3.82-6.36-4.25-1.49-.25-3.48-1.49-4.65-.07s-.19,3.15.55,4.67a11,11,0,0,1,.91,2.74c-3.09-3-4.82,5.71-8.28.14,1.09,7.23.95,14.32,3.94,20.95-2.33.32-2.47-1.27-3.1-2.35s-1.24-2.8-1.82-2.79c-3.54.11-5.63-2-7.86-5-1.11,4.13,1.4,7.15,1.27,10.71-1.58-.72-3.48-.9-3.39-2.67.13-2.53-1-3.64-3.22-4.18,0,2.14-4,3.17-1.66,6,.19.23-.1.86-.34,2.59-3.9-6.3-7.37-11.54-6.87-18.24.13-1.79.42-4-1.28-4.19-2.47-.31-1.17,2.52-2,3.7-1.92,2.93.84,5.71.21,8.48-2.13.74-1.76-1.85-3.13-2-1.22.63.36,3.19-1.77,2.92s-.91-3-2.32-4c-1.17.74-.57,1.78-.51,2.67.07,1.2-.39,2-1.6,2s-1.15-1-1.22-1.86c-.23-2.55-.85-4.88-3.36-6.75a72.28,72.28,0,0,0-4.49,17.46c-2.23-.65-2.58-2.11-2.28-4.06.43-2.78-.41-4.86-2.41-7.13s-1.69-7.52-7.16-5.4c-.91-2.61-3.07-4.71-2.65-7.87a21.58,21.58,0,0,0-.55-6.43c-1,3.56-3.75,6-5.27,9.17-.42.9-.94,1.9-2.23,1.32a1.72,1.72,0,0,1-1-2.48c2.83-4.09.2-10.19,4.83-13.7-2.12,2.52-6,3.81-5.17,8.2.12.66.56,1.45-.5,1.47-6.62.1-7.61,7.56-12.84,9.76-2.22.94-1.57,4.41-1.49,6.94.05,1.41.77,3.61-2.06,3.56-2.34,0-3.77-.8-3.48-3.54.2-1.93,0-3.89,0-6.15-3.83,4.36-1,9.3-2.14,13.72-.35,1.43,1.36,2.08,2.65,2.52a3.31,3.31,0,0,0,4-1.21c3-3.65,6.14-7.27,9.57-10.65-2.13,6.25-6.47,11.06-10.42,16.28,7-2.36,10.79-9.38,17.72-11.81,1,1.35-1.14,2.53-.34,4.68,4.82-4.52,4.71-10.91,7.82-16.13-1.4,5.28,2.59,8.57,3.86,12.76.58,1.92-.63,3.87-1.92,5.46-.47.58-.74,1.14-.15,1.72a1.12,1.12,0,0,0,1.7,0c3.26-2.51,5.07-2,5.51,2.24.27,2.61.38,2.4,2.82,2.06,2-.3,3.46,2.6,5,4.61-1.61-.6-2.51,4-4.56.26-.4-.73-.45.63-.54.93-1.69,5.11.27,10.45-.9,15.62-.29,1.27-.1,2.69-1.52,3.83-2.32-1.85.06-4.75-1.55-6.88-.75,2.52-1,6.06-4.09,5.81-4.22-.34-.65-4.6-2.63-6.71-1.88,1.14-1.41,4.39-4.12,5-2.45-2.56.13-4.82.59-7.42-1.68-.27-1.52,2.58-3.49,1.82.2-2.94,3.42-5.37,1.95-8.77-2.54.14-2.13,2.36-2.62,3.67-2.71,7.36-6.26,13.87-14.32,16.7-1.34.47-3.58,1.54-2.71,3.47.65,1.44,2.69.44,4.15.42,3.32,0,3.69-3.46,5.66-4.93,2.39,1.46-2.4,6.64,4.62,6-4.17,2.47-6,6-9.83,7.5-2.15.83-1.88,2.57-.79,4.49,1,1.72,1.7,3.77-1.34,4.62-1.52.43-1.66,1.68-.73,2.73a3,3,0,0,1,.28,4c-.37.61-.36,1.46.37,1.71a2.36,2.36,0,0,0,1.77-.39c1-.62,1.79-1.49,2.77-2.11s1.93-1.63,3.12-.71.88,2,.45,3.52c3.66-7.47,10-11.74,16.86-16.15.11,7-4,11.78-7.28,17.18,3.54-3.1,7.52-1.81,13-2.22-5.27,3-6.68,7.65-4.25,10.09,2.21,2.23,6.83.15,10.29-3-.2,3-.13,5.9,3,5.09,5.24-1.33,9.81.68,14.12,2.62,3.39,1.51,4.27.15,5.51-2.18q3.95-7.49,8-14.91a6.6,6.6,0,0,1,2.35-2.51c-1.68,8.88-9.76,15.55-9.2,26.45,4.29-3.73,4.07-9,7.86-11.86,1.05,2.76-1.47,4.56-1,7.58,3.35-3.82,4.31-8.32,6.42-12.17,1-1.89,1.74-4,2.79-5.84.47-.85.56-2.7,2.23-2,1.25.55,1.1,1.88.73,3.08a61.46,61.46,0,0,1-7,15.36c-2.08,3.19-3.91,6.56-5.83,9.86-.33.57-.86,1.21-.82,1.79.28,4.4.5,8.22-5.66,9.2-2,.32,1.66,3.54.43,6.13A25.35,25.35,0,0,0,224,336.2a2.52,2.52,0,0,1-2-1.18c-2.19-6.56-3.65-2.65-5.73.17-3.31,4.48-7.6,5.55-12.78,3.68-1.22-.43-2.32-1.59-3.71-.78-1.1.63-2.86,1-2.69,2.55.14,1.34,1.72,1.25,2.83,1.53,5.14,1.28,10.13-.06,15.15-.85,1.59-.25,3.12-.95,5.15-.39-2.3,2.48-5.75,2.44-7.82,4.4-3.44,3.23-5.56,8.27-12,4.08-2-1.27-6.44.33-9.48,1.89-3.36,1.73-3.65,4.86-3.77,8.1a1.68,1.68,0,0,1-1.38,1.82,2.21,2.21,0,0,1-2.46-2c-.42-2.44-.46-4.94-.8-7.4-.23-1.6-.3-3.61-2.28-4s-2.83,1.23-3.75,2.69c-3.37,5.4-2.9,10.39.47,15.79,3.09,5,8.2,8.37,10.3,14,.28.73.94,1.69,1.59,1.84,6.41,1.54,8.17,7.47,11.19,12,2.09,3.15,1.43,7.35,3,10.91,1.15,2.58,1.78,5.27,4.29,7a8,8,0,0,1,2.4,2.49c5.56,9.75,14.13,13.17,24.9,11.78,4.76-.62,9.55-1.19,14-3.32,2.36-1.13,4.73-.77,7.16.45,5.1,2.57,9.88,3.74,16,1.28,10.13-4.07,21.21-3.07,32-2.79,1.35,0,3.5.34,3.36,2.21-.15,2.11-2.43,2.25-4.08,3-8.62,4-18.23,2.3-27.09,4.83-3.59,1-6.88,2.24-8.77,6-1.43,2.81-4.93,2.49-6.67-.31s-7-4.49-10-3.11c-1.31.61-2,2.17-.88,2.61,3.35,1.31,5.46,3.95,8.1,5.9s7.23,1.36,11.1,1.3c11.23-.18,20.2-6.63,30.4-10.28-1.34,4.18.71,4.09,3.67,3.05,1.11-.39,2.5-1.88,3.48-.22a2.72,2.72,0,0,1-1.16,3.51c-7.89,5-14.71,11.93-24.46,13.74-2.56.47-5.67,1.2-7.29,2.95-6.23,6.74-13.67,4-20.88,3.39-1.48-.13-2.93-.63-4.42-.15s-3,1-1.54,3c2.25,3.15,1,4.81-2.41,5.55-.82.19-1.75.43-1.77,1.42a2.07,2.07,0,0,0,1.89,2c4.87.43,8.62,4.08,13.61,4.4,4,.27,7.87,1.69,10.51-2.9.59-1,2.18-1.22,3.66-.86,20.6,5,27-3.56,36.08-20.38,2.88-5.35,4.63-11.32,7-17,.23-.55.8-1,2.07-2.4.39,5.57.42,10.16-.88,14.4-2.52,8.22-3,16.5-2.46,25,.27,4.47,4.2,7.4,4.1,12.62,4-3.65,5.44-7.74,6.26-11.89a143.46,143.46,0,0,1,4.37-15.76c1.3-4.09.84-7.8-2.16-11.74-1.24,4.17,1.2,8.14-.92,12.2-1.67-5.14-2.86-9.75-1.89-15,1-5.58-.78-11.22-2.1-16.57-.8-3.28-1-6.11.12-9a114.71,114.71,0,0,0,7.81-40.34c0-4.41,1.5-8.82,2.35-13.22.93-4.83,2.72-9.49.95-14.63-1-3,2-5.87,1.46-9.14-1.21-6.91-2.93-13.54-8.15-18.71-.51-.5-.33-1.56-1.63-1.09-2.77,1-4.14,6.75-2.29,9.06,3.4,4.24,6.84,8.58,4.75,15.08-2.12-1.13-1.53-3.07-2-4.44a13.5,13.5,0,0,0-4.87-7.33c-4.06-2.84-6.89-1.57-7.57,3.16-.2,1.41-.86,4.06-2.38,1.77-4.43-6.66-11-3.38-16.62-4.34-3.85-.66-7.84-.5-11.76-.67-.91,0-1.76-.19-1.74-1.25a2,2,0,0,1,1.91-2,53.63,53.63,0,0,0,7.48-1c-2.53-.17-3.48-2.09-4.87-3.51-.95-1-2.16-3.09-3.53-1.65-1.75,1.82,2,1.59,1.78,3.65-.85,1.07-2.6,1.18-4.07,1.59-2.55.71-5.43,3.47-7.75.52s-1.75-6.8-.07-9.93a25.58,25.58,0,0,0,2.58-8.32c1.35-8.19,7.06-13.06,14.54-15.65,2.69-.93,3-1.92,2.24-4.24-.57-1.63-1.88-3.13-1.22-5.43,2.71,1.64,3,4.32,3.82,6.73.33,1,.08,2.79,1.72,2.39s1.32-2.1.83-3.35c-.58-1.51-1.38-2.93-2.69-5.61a12.15,12.15,0,0,1,5.51,5.79c.42.76.3,1.76,2.29,1.49,4.05-.54,4.68-1.81,2.92-5.24-.63-1.22-.58-2.79-.84-4.15,2-1.13,2.47,1.34,4,1.6.11-.58.41-1.13.24-1.43-4.88-9-9.82-17.88-14.73-26.83-.82-1.5-2.78-3.33-.37-4.64,2.15-1.15,2.61,1.44,3.31,2.74,2.23,4.16,6.44,7.09,6.92,12.5.15,1.62,3.53,3.64,5.74,4.19s3.55,2.07,5.62,3.32c-1.13-3.07-1.81-7.72-3.11-7.91-5-.69-4-5.28-6.08-7.64s-.9-4.23,2.83-4.12a42.66,42.66,0,0,1-2.83-4.33c-.46-1-2.71-1.82-.7-3.13,1.41-.92,2.38.16,3.21,1.39s1.11,2.83,3.39,2.89c-1.2-6.91-6.35-11.31-9.71-16.69-.44-.7-1.36-1.15-1.6-1.87-.4-1.19-2.78-3.11-.82-3.39s4.44-5,6.33-.48c1.33,3.17,3.66,4,5.64,2.25,1.41-1.23,1.58-4.38-.59-6.36a1.61,1.61,0,0,1-.21-1.62c8.11,4.1,10.29,13.46,16.7,19.32.88-2.77-2.7-3.72-2.29-6.42,1.7-.83,3.23,1.26,4.87.87.81-2.64-2.19-2.84-2.55-4.54,6.76-4.42,10.89,2,16.14,3.79a1.54,1.54,0,0,1,1,2c-1.07,3.61,2.07,4.86,3.32,7.11,2,3.67,4.69,4.63,7.65,6.21.91.49,2.08,1.95,1.93,2.74-.94,5.12,3.94,5.91,6.11,8.66.77,1,1.88,1.67,3.06,1,4.65-2.6,4.33,2.15,5.62,4,.88,1.28-.07,3.25,1.36,5,1.28,1.52-.05,2.17-4.55,1.07-.19,4.53,5.87,5.6,5.34,10,1.59,1,3.63-4,4.73.73.23,1,1.64-.2,2.12-1.07.94-1.72.41-3.55,0-5.36,5.23.39,5.39.4,5,5.09-.29,3.8-.33,6.87,3.95,9,2.47,1.23,1.26,5.23.78,7.26-1.92,8.16.41,14.75,4.85,21.47,1.7,2.58,1,6.79-.31,10.11-.74,1.85-1.79,3.57-1,5.65,1.7.49,1.92-1.7,3.33-1.82,1.15,1.51.08,2.64-.79,3.41-4.17,3.67-3.58,7.81-1.44,12.16a6.69,6.69,0,0,0,1.39,1.94A12.44,12.44,0,0,1,398,368.7c-1.2,2.14-.15,3.94.11,5.85.46,3.29,2.25,7-3.8,6.8-2.83-.11-4.21,2.41-4.39,4.64a65.94,65.94,0,0,1-6.39,23.18c-2.31,4.88-1,10.14-2.44,15.11-.77,2.68,2.31,2.85,4.11,3.2,7.66,1.46,15.35,2.75,23,4.09a26.42,26.42,0,0,1,11.61,5.37c9,6.86,19.2,11.9,28.95,17.58,7,4.11,13.36,9.94,20.76,12.71,9.57,3.58,12.58,12.65,19.3,18.41,15.14,13,30.24,26,43.07,41.4,1.66,2,3.82,3.77,4.21,6.61ZM95.84,341.42c-1.52-.12-2.51-.11-3.47-.29-1.35-.25-3.73.2-3.45-1.8.41-2.93,2.27,0,3.43-.36,1.32-.42,3.55,1.14,3.77-1.75.17-2.28-.92-3.62-3.23-3.71-.74,0-1.5-.28-1.36-1,1.11-6.08-2.76-3-4.6-2.26-2.72,1-5.19,2.68-8.34,4.38,6.63,2.4,9.54,8.46,14.65,12Z" transform="translate(-75.08 -169.6)"/><path d="M246.57,392.83c3.14.52,5.42.82,7.64,2.39,3.52,2.49,8,2.5,12,3.54,5.9,1.5,7.8-2.08,10.85-4.86a9.43,9.43,0,0,1,5.16-2.82,4.76,4.76,0,0,1,4.79,2c1.26,1.88-.41,3-1.48,4.2-1.86,2.15-3.58,4.23-7,4s-4.75,2.59-5.69,4.85c-2.93,7-8.13,8.79-14.79,6.78-5-1.51-10.37-1.9-15-4.73a14.17,14.17,0,0,1-5.4-5.66c-1.5-2.91-3.27-6.12,2.36-6.93C242.58,395.22,244.14,391.88,246.57,392.83Z" transform="translate(-75.08 -169.6)"/><path d="M223.2,241.77c-.13,2.91-.26,5.84-.39,8.85,1.28-.39.37-2.68,2-2.32,1.42.32,1.21,1.76,1.15,2.93-.26,5.1-1.83,9.55-7.32,13.33,3.37-11.37,1.28-22,1.15-33.38,3.56,3.1,6.47,5.67,7,9.83.2,1.59-.07,4-1.65,4.31C222.4,245.79,224.36,242.72,223.2,241.77Z" transform="translate(-75.08 -169.6)"/><path d="M258.88,231.28c0,3.67,4.93,3.46,5.13,7.58.14,3,2.68-1.1,4.63.13-6.52,4.89.63,8.85,1.07,13.36.33,3.37,3.78,6.4,5.72,9.66.52.87,2,1.94.78,3s-2.45-.05-3.23-1.25c-3.5-5.41-7.58-10.58-9.43-16.82a35.87,35.87,0,0,0-4.38-10.4C258.21,235.09,257,233.47,258.88,231.28Z" transform="translate(-75.08 -169.6)"/></svg>