<?xml version="1.0" encoding="UTF-8"?>
<svg id="Capa_1" data-name="Capa 1" xmlns="http://www.w3.org/2000/svg" viewBox="0 0 383.35 368.98">
  <defs>
    <style>
      .cls-1 {
        fill: #ba1e1e;
        stroke-width: 0px;
      }
    </style>
  </defs>
  <path class="cls-1" d="m0,309.96V58.96c.65-2.71,1.25-5.44,2-8.13C10,20.39,36.7.05,69,.03,149.95-.01,230.89-.01,311.84.03c3.6,0,7.22.21,10.81.56,34.07,3.29,60.64,31.94,60.66,65.57.05,78.84.05,157.68,0,236.51.1,9.01-1.86,17.92-5.73,26.05-12.56,26-33.69,39.61-62.77,40-36.54.5-73.08.12-109.63.12H68.61c-32-.06-58.68-20.53-66.6-50.79-.75-2.66-1.31-5.38-2.01-8.09Zm125.7-101.99c1.71,0,3.05.05,4.38,0,10.19-.43,20.49-.08,30.54-1.47,26.79-3.72,48.23-19.47,50.91-49.67,1.33-14.93-1.67-28.93-11.58-40.77-12.24-14.63-28.84-20.91-47.39-21.47-19.79-.6-39.62.26-59.44.51-.65.1-1.28.29-1.88.55v159.8q0,5.11,5.34,5.11c8.23,0,16.47-.15,24.69.07,3.5.1,4.53-1.08,4.5-4.43-.15-14.63-.07-29.27-.07-43.9v-4.33Zm141.93-58c-.53-3.34-1.19-7.08-1.71-10.84-.48-3.4-2.34-4.84-5.83-4.8-8,.11-16,.15-23.95,0-3-.07-3.53,1.14-3.4,3.74.39,7.49.76,15,.78,22.48.11,31.74.09,63.48.13,95.22,0,4.63.16,4.78,4.82,4.79,8.86,0,17.72-.16,26.57.08,3.64.1,4.63-1,4.61-4.57-.14-24.84,0-49.69-.15-74.54-.15-2.47,1.06-4.82,3.15-6.14,6.33-4.52,13.62-6.56,21.14-7.78,5.49-.89,11.09-1.13,17.05-1.7,0-10.77.05-21.44-.13-32.11,0-.63-1.87-1.74-2.9-1.77-7.76-.32-15.45,1.59-22.16,5.5-6.35,3.76-12.17,8.36-18.04,12.46l.02-.02Z"/>
  <path class="cls-1" d="m125.93,178.34v-53.25c8,0,15.94-.23,23.84.1,3.6.26,7.14,1.02,10.53,2.24,11,3.65,16.9,12.16,16.76,23.51-.15,12.53-5.91,20.75-17.09,24.51-10.98,3.7-22.27,3.32-34.04,2.89Z"/>
</svg>