<?xml version="1.0" encoding="UTF-8"?>
<svg id="Capa_5" data-name="Capa 5" xmlns="http://www.w3.org/2000/svg" viewBox="0 0 383.25 383.26">
  <defs>
    <style>
      .cls-1 {
        fill: #ba1e1e;
        stroke-width: 0px;
      }
    </style>
  </defs>
  <path class="cls-1" d="m35.18,0h312.89c.64.3,1.31.56,2,.75,19.18,3.84,33.03,20.62,33.15,40.18.04,100.52.04,201.04,0,301.55-.17,22.42-18.31,40.56-40.73,40.74-100.52.05-201.04.05-301.55,0-18.02-.16-33.88-11.95-39.22-29.16-.6-2-1.15-4-1.72-6V35.18c.3-.51.54-1.05.72-1.62C2.87,22.56,8.37,13.56,17.72,7.61c5.3-3.37,11.62-5.12,17.46-7.61Zm111.12,219.56l21.62,23.93c20.24,22.38,40.49,44.76,60.75,67.14,5.51,6.07,11.91,7.72,18.86,4.46,17.45-8.22,34.83-16.58,52.16-25.08,5.9-2.88,8.75-7.91,8.75-14.51V107.11c0-6.47-2.94-11.37-8.68-14.17-17.21-8.43-34.48-16.73-51.81-24.91-7-3.32-13.86-1.78-19,3.92-19.43,21.44-38.83,42.9-58.22,64.39-8.09,8.95-16.2,17.91-24.34,26.88-1-.76-1.82-1.33-2.59-2-16.18-13.29-32.44-26.51-48.49-40-4.75-4-9.41-5-15.1-2.36-5.29,2.47-10.76,4.56-16.18,6.77-4.83,2-7.12,5.53-7.12,10.72v110c0,5.21,2.34,8.77,7.09,10.79,5.85,2.47,11.73,4.83,17.54,7.38,4.65,2,8.7,1.23,12.48-2,4.58-3.86,9.18-7.69,13.81-11.48,12.67-10.35,25.39-20.76,38.47-31.48Z"/>
  <path class="cls-1" d="m245.39,138.3v106.19l-64.76-53.08,64.76-53.11Z"/>
  <path class="cls-1" d="m120.85,191.39l-32.2,35.61v-71.17c10.82,11.96,21.37,23.58,32.2,35.56Z"/>
</svg>